<?xml version="1.0" standalone="no"?>
<!DOCTYPE svg PUBLIC "-//W3C//DTD SVG 20010904//EN"
 "http://www.w3.org/TR/2001/REC-SVG-20010904/DTD/svg10.dtd">
<svg version="1.0" xmlns="http://www.w3.org/2000/svg"
 width="200.000000pt" height="200.000000pt" viewBox="0 0 200.000000 200.000000"
 preserveAspectRatio="xMidYMid meet">
<metadata>
Created by potrace 1.11, written by Peter Selinger 2001-2013
</metadata>
<g transform="translate(0.000000,200.000000) scale(0.100000,-0.100000)"
fill="#000000" stroke="none">
<path d="M950 1741 c-5 -11 -10 -30 -10 -43 -1 -33 -37 -108 -68 -141 -36 -38
-76 -58 -142 -71 -52 -10 -55 -13 -58 -43 -3 -35 -1 -36 61 -35 48 1 123 31
165 67 45 39 52 34 45 -35 -13 -126 -95 -215 -217 -234 -50 -8 -56 -12 -56
-41 0 -34 24 -43 83 -33 63 12 128 42 157 74 13 13 27 24 31 24 4 0 5 -26 3
-57 -5 -73 -43 -153 -92 -193 -35 -29 -50 -35 -142 -57 -30 -8 -35 -13 -35
-38 l0 -30 60 1 c66 1 121 24 177 73 l33 29 0 -182 0 -181 -303 -1 -302 0 0
78 0 79 31 -22 c36 -26 104 -32 104 -10 0 8 -15 19 -35 24 -57 14 -100 67
-100 121 l0 25 44 -23 c49 -26 89 -29 94 -6 1 10 -13 20 -45 30 -56 18 -93 64
-93 117 0 31 1 33 16 19 31 -32 108 -54 119 -35 7 10 -12 39 -23 37 -43 -5
-98 43 -107 95 -9 46 -32 56 -46 19 -24 -67 -32 -79 -58 -95 -16 -9 -39 -18
-52 -20 -16 -3 -24 -11 -24 -23 0 -15 6 -18 30 -16 17 2 45 12 64 23 18 11 35
18 38 15 2 -2 1 -20 -3 -40 -8 -47 -54 -93 -100 -102 -25 -5 -34 -11 -32 -23
5 -23 63 -18 99 8 35 26 39 26 39 1 0 -61 -62 -130 -117 -130 -16 0 -23 -6
-23 -20 0 -28 35 -26 94 4 l47 24 -3 -77 -3 -76 -98 0 -98 0 3 -25 3 -24 880
-1 c484 0 888 1 898 4 19 4 24 41 5 42 -7 0 -61 1 -120 2 l-108 1 0 73 0 72
43 -24 c48 -28 97 -33 97 -10 0 9 -8 18 -17 21 -80 25 -109 54 -120 120 l-6
38 36 -23 c45 -28 96 -35 104 -15 7 19 2 24 -32 30 -58 10 -105 67 -105 128
l0 25 36 -24 c20 -14 43 -26 50 -26 8 -1 22 -2 31 -3 10 0 19 7 21 16 2 12 -7
20 -35 27 -59 16 -80 41 -107 124 -3 9 -10 17 -16 17 -11 0 -14 -7 -24 -52 -8
-38 -59 -84 -101 -92 -34 -7 -48 -30 -22 -39 20 -7 81 14 105 36 l22 20 0 -35
c0 -54 -36 -100 -93 -118 -32 -10 -46 -20 -44 -30 4 -21 62 -15 104 10 l33 19
0 -27 c0 -56 -44 -102 -123 -126 -10 -3 -17 -12 -14 -19 7 -19 72 -12 106 13
l32 22 -3 -73 -3 -74 -297 -1 -296 -1 0 183 0 183 26 -25 c65 -61 221 -108
243 -73 21 34 3 59 -47 66 -129 16 -209 107 -221 250 l-5 65 32 -31 c40 -38
102 -68 161 -79 57 -10 77 -6 85 20 8 28 -15 49 -62 55 -118 16 -200 112 -212
247 l-5 61 34 -28 c74 -60 205 -99 235 -70 31 31 10 59 -51 69 -53 8 -81 20
-120 50 -39 29 -81 109 -91 169 -3 22 -11 43 -18 47 -20 14 -45 8 -56 -11z"/>
<path d="M138 448 c-30 -24 -28 -66 4 -99 16 -16 33 -29 37 -29 4 0 13 -11 19
-25 10 -21 9 -26 -6 -34 -21 -11 -36 -4 -45 22 -8 21 -27 23 -27 3 0 -38 70
-62 98 -34 21 21 13 49 -24 81 -51 46 -59 63 -39 93 13 20 19 22 35 14 12 -6
20 -21 20 -35 0 -16 6 -25 15 -25 20 0 20 44 -1 64 -19 19 -64 21 -86 4z"/>
<path d="M1203 350 c1 -72 5 -100 15 -100 6 0 12 6 12 13 0 19 19 80 30 97 16
23 30 -6 30 -62 0 -26 5 -50 10 -53 11 -7 14 64 4 114 -8 39 -35 41 -61 5
l-19 -26 1 44 c2 48 -3 68 -16 68 -4 0 -7 -45 -6 -100z"/>
<path d="M1475 441 c-3 -5 -1 -12 5 -16 12 -7 30 2 30 16 0 12 -27 12 -35 0z"/>
<path d="M279 391 c-30 -24 -34 -92 -8 -126 43 -53 105 -13 103 68 -2 62 -52
93 -95 58z m62 -22 c21 -33 3 -109 -25 -109 -35 0 -54 81 -27 114 14 17 39 15
52 -5z"/>
<path d="M703 399 c-66 -24 -50 -157 20 -159 18 0 62 38 54 47 -3 2 -17 -3
-32 -13 -27 -18 -28 -18 -47 6 -27 33 -18 45 35 45 51 0 61 10 44 45 -15 28
-45 40 -74 29z m50 -33 c6 -16 -23 -27 -53 -19 -16 4 -18 8 -9 19 15 18 55 18
62 0z"/>
<path d="M947 389 c-23 -32 -14 -52 32 -78 37 -20 41 -25 29 -38 -15 -14 -48
-8 -48 8 0 5 -7 9 -15 9 -12 0 -13 -4 -5 -19 20 -38 83 -39 95 -2 9 29 -4 49
-41 61 -37 13 -47 43 -17 55 12 4 24 -2 39 -20 11 -14 23 -22 27 -19 11 12 8
23 -13 44 -26 26 -65 26 -83 -1z"/>
<path d="M1373 399 c-59 -22 -56 -139 4 -154 26 -6 73 17 73 35 0 13 -3 13
-36 -5 -27 -14 -30 -14 -47 6 -27 33 -16 44 42 44 51 -1 52 0 46 24 -12 47
-42 65 -82 50z m53 -30 c8 -14 -13 -28 -35 -24 -9 2 -22 4 -30 4 -11 1 -11 4
-1 16 15 18 56 20 66 4z"/>
<path d="M446 375 c-25 -27 -26 -27 -26 -6 0 13 -5 21 -11 19 -6 -2 -10 -7
-10 -11 1 -4 1 -36 1 -72 0 -36 4 -65 9 -65 5 0 14 22 21 49 12 51 34 90 44
80 3 -3 7 -33 8 -67 2 -36 7 -61 13 -59 9 3 10 21 6 103 -1 11 -7 29 -15 39
-13 18 -15 18 -40 -10z"/>
<path d="M580 373 c-18 -23 -26 -19 -21 10 0 4 -6 7 -14 7 -11 0 -14 -14 -12
-67 3 -63 18 -98 25 -56 5 33 34 103 42 103 11 0 20 -38 20 -87 0 -24 5 -43
10 -43 21 0 7 145 -16 154 -7 3 -22 -7 -34 -21z"/>
<path d="M1076 378 c-31 -43 -17 -111 25 -128 24 -10 33 -10 54 4 14 9 25 21
25 26 0 15 -11 12 -32 -7 -23 -21 -48 -9 -62 30 -20 56 36 105 66 57 15 -23
28 -26 28 -6 0 45 -77 62 -104 24z"/>
<path d="M1597 388 c-10 -5 -22 -19 -27 -31 -8 -21 -9 -20 -9 6 -1 16 -7 27
-15 27 -8 0 -13 -8 -11 -17 2 -10 4 -44 4 -75 1 -65 15 -77 26 -21 9 49 34 98
45 87 5 -5 10 -33 12 -62 2 -29 8 -51 13 -50 6 2 9 12 9 23 -7 115 -14 132
-47 113z"/>
<path d="M805 315 c0 -81 11 -92 30 -29 16 55 35 88 45 78 5 -5 10 -35 12 -67
2 -32 7 -56 13 -54 10 4 10 81 0 125 -7 31 -41 28 -59 -5 l-15 -28 -1 28 c0
15 -6 27 -13 27 -9 0 -12 -21 -12 -75z"/>
<path d="M1480 314 c0 -94 17 -90 21 5 2 43 -1 66 -9 69 -9 3 -12 -19 -12 -74z"/>
</g>
</svg>
